HIERARCHY
ROOT Hips
{
	OFFSET 0.00000 0.00000 0.00000
	CHANNELS 6 Xposition Yposition Zposition Zrotation Yrotation Xrotation 
	JOINT LHipJoint
	{
		OFFSET 0 0 0
		CHANNELS 3 Zrotation Yrotation Xrotation
		JOINT LeftUpLeg
		{
			OFFSET 1.54859 -1.61379 0.86856
			CHANNELS 3 Zrotation Yrotation Xrotation
			JOINT LeftLeg
			{
				OFFSET 2.25087 -6.18423 0.00000
				CHANNELS 3 Zrotation Yrotation Xrotation
				JOINT LeftFoot
				{
					OFFSET 2.40328 -6.60297 0.00000
					CHANNELS 3 Zrotation Yrotation Xrotation
					JOINT LeftToeBase
					{
						OFFSET 0.17435 -0.47901 2.02453
						CHANNELS 3 Zrotation Yrotation Xrotation
						End Site
						{
							OFFSET 0.00000 -0.00000 1.04844
						}
					}
				}
			}
		}
	}
	JOINT RHipJoint
	{
		OFFSET 0 0 0
		CHANNELS 3 Zrotation Yrotation Xrotation
		JOINT RightUpLeg
		{
			OFFSET -1.54669 -1.61379 0.86856
			CHANNELS 3 Zrotation Yrotation Xrotation
			JOINT RightLeg
			{
				OFFSET -2.28132 -6.26789 0.00000
				CHANNELS 3 Zrotation Yrotation Xrotation
				JOINT RightFoot
				{
					OFFSET -2.51636 -6.91365 0.00000
					CHANNELS 3 Zrotation Yrotation Xrotation
					JOINT RightToeBase
					{
						OFFSET -0.15124 -0.41552 2.21090
						CHANNELS 3 Zrotation Yrotation Xrotation
						End Site
						{
							OFFSET -0.00000 -0.00000 1.13399
						}
					}
				}
			}
		}
	}
	JOINT LowerBack
	{
		OFFSET 0 0 0
		CHANNELS 3 Zrotation Yrotation Xrotation
		JOINT Spine
		{
			OFFSET -0.04287 2.26161 -0.25690
			CHANNELS 3 Zrotation Yrotation Xrotation
			JOINT Spine1
			{
				OFFSET 0.02248 2.28395 -0.10140
				CHANNELS 3 Zrotation Yrotation Xrotation
				JOINT Neck
				{
					OFFSET 0 0 0
					CHANNELS 3 Zrotation Yrotation Xrotation
					JOINT Neck1
					{
						OFFSET -0.11644 1.38496 0.11345
						CHANNELS 3 Zrotation Yrotation Xrotation
						JOINT Head
						{
							OFFSET 0.29383 1.36600 0.06642
							CHANNELS 3 Zrotation Yrotation Xrotation
							End Site
							{
								OFFSET 0.11075 1.41395 -0.00294
							}
						}
					}
				}
				JOINT LeftShoulder
				{
					OFFSET 0 0 0
					CHANNELS 3 Zrotation Yrotation Xrotation
					JOINT LeftArm
					{
						OFFSET 3.51628 0.59542 -0.30346
						CHANNELS 3 Zrotation Yrotation Xrotation
						JOINT LeftForeArm
						{
							OFFSET 4.76405 -0.00000 0.00000
							CHANNELS 3 Zrotation Yrotation Xrotation
							JOINT LeftHand
							{
								OFFSET 3.13759 -0.00000 -0.00000
								CHANNELS 3 Zrotation Yrotation Xrotation
								JOINT LeftFingerBase
								{
									OFFSET 0 0 0
									CHANNELS 3 Zrotation Yrotation Xrotation
									JOINT LeftHandIndex1
									{
										OFFSET 0.73226 -0.00000 -0.00000
										CHANNELS 3 Zrotation Yrotation Xrotation
										End Site
										{
											OFFSET 0.59037 -0.00000 -0.00000
										}
									}
								}
								JOINT LThumb
								{
									OFFSET 0 0 0
									CHANNELS 3 Zrotation Yrotation Xrotation
									End Site
									{
										OFFSET 0.59938 -0.00000 0.59938
									}
								}
							}
						}
					}
				}
				JOINT RightShoulder
				{
					OFFSET 0 0 0
					CHANNELS 3 Zrotation Yrotation Xrotation
					JOINT RightArm
					{
						OFFSET -3.30990 0.84213 -0.36430
						CHANNELS 3 Zrotation Yrotation Xrotation
						JOINT RightForeArm
						{
							OFFSET -5.10161 -0.00000 -0.00000
							CHANNELS 3 Zrotation Yrotation Xrotation
							JOINT RightHand
							{
								OFFSET -3.23267 -0.00000 -0.00000
								CHANNELS 3 Zrotation Yrotation Xrotation
								JOINT RightFingerBase
								{
									OFFSET 0 0 0
									CHANNELS 3 Zrotation Yrotation Xrotation
									JOINT RightHandIndex1
									{
										OFFSET -0.70200 -0.00000 -0.00000
										CHANNELS 3 Zrotation Yrotation Xrotation
										End Site
										{
											OFFSET -0.56597 -0.00000 -0.00000
										}
									}
								}
								JOINT RThumb
								{
									OFFSET 0 0 0
									CHANNELS 3 Zrotation Yrotation Xrotation
									End Site
									{
										OFFSET -0.57461 -0.00000 0.57461
									}
								}
							}
						}
					}
				}
			}
		}
	}
}
MOTION
Frames: 14
Frame Time: .0083333
2.8216 15.8486 -5.6634 -184.4720 36.4730 -172.7150 0.0000 0.0000 0.0000 -28.0534 2.4988 26.4349 2.3381 9.5374 27.4914 0.6926 5.5957 14.8264 2.0754 -9.0214 -25.8622 0.0000 0.0000 0.0000 6.1510 5.6281 -51.4613 -2.3246 -9.5117 27.4095 -0.0267 -5.9754 4.8956 -6.2019 14.6212 -45.7867 -11.0936 -1.5647 8.1232 0.7275 -2.2074 6.7245 7.1209 -1.3629 3.0663 -15.4753 -7.7954 -2.2131 20.9410 -9.1356 -8.2755 8.8788 -4.4079 -0.1760 -0.0000 0.0000 0.0000 -77.1002 -9.6199 25.6307 79.5493 -59.5833 -50.9621 -0.0000 0.0000 -25.9028 6.9874 29.0455 3.4053 -7.1250 0.0000 -0.0000 -26.1669 57.2246 -8.2154 -0.0000 0.0000 0.0000 75.4882 8.3061 7.7780 -21.7488 32.6920 -6.4497 0.0000 0.0000 0.8969 -20.9637 21.9181 -8.1391 7.1250 -0.0000 -0.0000 4.9308 -6.7414 4.3344
3.2939 15.8505 -6.0504 -185.2510 36.8544 -173.9370 0.0000 0.0000 0.0000 -28.2711 3.4326 26.6478 2.9122 10.5516 30.7821 0.6191 5.9868 14.0372 2.0672 -9.0047 -25.8101 0.0000 0.0000 0.0000 7.8132 4.7407 -51.5365 -2.2447 -9.3583 26.9226 -0.0665 -6.9040 6.3035 -5.7939 14.2256 -44.1489 -11.9462 -1.3147 8.1541 0.5641 -1.9144 6.7308 7.4177 -1.2406 3.0442 -15.6712 -7.7161 -2.1599 21.0717 -9.0375 -8.1867 8.9623 -4.3573 -0.1594 -0.0000 0.0000 0.0000 -75.9679 -7.7651 25.2559 84.6211 -59.8904 -55.3434 -0.0000 0.0000 -28.8576 4.5867 29.4904 2.2616 -7.1250 0.0000 -0.0000 -28.8717 57.1152 -9.0823 -0.0000 0.0000 0.0000 74.1804 8.3840 7.1686 -21.6616 32.5925 -6.4026 0.0000 0.0000 2.0589 -21.0426 21.8788 -8.1585 7.1250 -0.0000 -0.0000 4.8777 -6.7700 4.2847
3.7522 15.8288 -6.4352 -185.9450 37.2996 -175.0830 0.0000 0.0000 0.0000 -28.3110 4.6165 26.4156 3.6697 11.7074 34.7047 0.5034 6.7966 12.7896 1.8558 -8.5590 -24.4252 0.0000 0.0000 0.0000 9.3178 3.9632 -51.4450 -2.2836 -9.4334 27.1606 -0.0966 -6.6247 6.7655 -5.3936 13.8138 -42.4965 -12.5354 -1.0944 8.1242 0.2955 -1.6310 6.7656 7.4488 -1.1116 3.0632 -16.1828 -7.4262 -2.3234 21.7809 -8.6604 -7.6004 9.2924 -4.1486 0.0349 -0.0000 -0.0000 0.0000 -74.7602 -5.7166 24.8311 90.2892 -59.9997 -60.2505 -0.0000 0.0000 -32.0714 2.9159 30.0262 1.4600 -7.1250 0.0000 -0.0000 -30.9300 57.2277 -9.9024 -0.0000 -0.0000 0.0000 73.2110 8.3688 9.1284 -21.3463 32.2304 -6.2336 0.0000 0.0000 2.9108 -20.8902 21.4809 -7.9563 7.1250 -0.0000 -0.0000 4.9402 -7.2088 4.2976
4.2412 15.7944 -6.8129 -186.9260 37.5308 -176.6300 0.0000 0.0000 0.0000 -28.1746 6.0304 25.8667 4.6111 12.9320 39.1143 0.4410 7.0288 12.0748 2.3631 -9.5846 -27.6419 0.0000 0.0000 0.0000 10.2109 3.5018 -50.6315 -2.3884 -9.6321 27.7935 -0.1284 -6.2047 7.2006 -4.9103 13.2820 -40.4336 -13.7169 -0.9283 8.1001 0.0083 -1.4158 6.9384 7.7933 -1.0506 3.2820 -16.0671 -7.3855 -2.5179 21.8189 -8.5703 -7.5609 9.2826 -4.0902 0.0593 0.0000 -0.0000 0.0000 -73.6608 -3.5913 24.1283 96.2965 -59.8497 -65.4502 -0.0000 0.0000 -35.3548 0.3860 30.6331 0.1967 -7.1250 0.0000 -0.0000 -33.8748 57.2073 -10.9776 0.0000 -0.0000 0.0000 72.2660 8.9903 9.5933 -21.3458 32.2298 -6.2334 0.0000 0.0000 2.2143 -21.0710 21.3219 -7.9748 7.1250 -0.0000 -0.0000 4.8123 -7.3470 4.1725
4.6891 15.7372 -7.1997 -188.0380 37.6347 -178.2320 0.0000 0.0000 0.0000 -28.4516 7.1134 25.0784 5.7615 14.1932 44.0170 0.2866 8.6679 10.5473 2.1887 -9.2486 -26.5762 0.0000 0.0000 0.0000 10.8595 2.5528 -49.8980 -2.5314 -9.8947 28.6364 -0.2122 -4.6697 8.3292 -4.0603 12.2402 -36.5872 -14.4538 -0.8732 8.2235 -0.3679 -1.3396 7.0951 7.7971 -1.0300 3.4039 -16.7629 -7.4569 -2.4014 22.4932 -8.6641 -7.5349 9.6307 -4.1329 0.1444 0.0000 -0.0000 0.0000 -72.9508 -1.4940 23.2226 102.3843 -59.4125 -70.7039 -0.0000 0.0000 -38.5869 -2.8160 31.6597 -1.4789 -7.1250 0.0000 -0.0000 -37.8228 57.3651 -12.6621 0.0000 -0.0000 0.0000 71.4152 9.7844 9.5044 -21.3484 32.2327 -6.2347 0.0000 0.0000 2.1205 -21.0721 21.2688 -7.9566 7.1250 -0.0000 -0.0000 4.8071 -7.4022 4.1628
5.1574 15.6742 -7.5790 -188.5930 37.7718 -179.6730 0.0000 0.0000 0.0000 -27.6087 8.6128 24.2307 7.0816 15.4002 49.1823 0.1471 9.7358 9.1065 2.0582 -8.9863 -25.7524 0.0000 0.0000 0.0000 11.6847 2.1037 -48.3177 -2.6872 -10.1707 29.5312 -0.2941 -3.5442 9.6384 -2.9321 10.5843 -30.8904 -15.0617 -0.7551 8.4637 -0.4945 -1.2025 7.2671 7.9977 -0.9813 3.4640 -15.1046 -7.1756 -1.9284 21.0074 -8.2358 -8.4853 8.9120 -3.9726 -0.4610 -0.0000 0.0000 0.0000 -72.4627 0.8688 22.4462 108.5577 -58.6579 -75.9990 -0.0000 0.0000 -41.4538 -5.8276 32.7652 -3.1616 -7.1250 0.0000 -0.0000 -41.6762 57.5816 -14.4962 -0.0000 0.0000 0.0000 70.4615 10.4807 10.3845 -21.2297 32.0955 -6.1715 0.0000 0.0000 2.0133 -21.1068 21.2228 -7.9546 7.1250 -0.0000 -0.0000 4.7812 -7.4449 4.1362
5.6099 15.6044 -7.9587 -188.4950 37.9238 -180.4330 0.0000 0.0000 0.0000 -26.0090 10.0872 22.8273 8.5660 16.5202 54.5768 0.0318 10.5602 7.8970 1.8673 -8.5840 -24.5024 0.0000 0.0000 0.0000 12.8638 1.7995 -46.8003 -2.8829 -10.5030 30.6216 -0.3994 -2.7499 11.3084 -2.3734 9.6040 -27.7037 -14.8379 -0.5986 8.4686 -0.5751 -0.9600 7.3726 7.7736 -0.8507 3.5017 -15.4601 -7.1906 -1.4749 21.1786 -8.2522 -8.8911 9.0596 -4.0015 -0.6218 -0.0000 0.0000 0.0000 -71.7601 3.2632 22.0504 114.5167 -57.6023 -81.0612 -0.0000 0.0000 -43.7017 -8.3587 33.3964 -4.6237 -7.1250 0.0000 -0.0000 -44.6151 57.5063 -15.7245 -0.0000 0.0000 0.0000 69.5727 11.3671 9.8181 -21.3426 32.2261 -6.2316 0.0000 0.0000 1.7163 -21.1185 21.1411 -7.9304 7.1250 -0.0000 -0.0000 4.7670 -7.5286 4.1160
6.0589 15.5406 -8.3412 -187.8360 38.0232 -180.6050 0.0000 0.0000 0.0000 -23.9998 11.1924 21.0648 10.1847 17.5124 60.1038 -0.0870 11.4455 6.6866 1.4918 -7.7158 -21.8541 0.0000 0.0000 0.0000 14.2112 1.6977 -45.3951 -3.1657 -10.9585 32.1401 -0.4730 -2.0280 12.4500 -0.2350 -3.1199 8.6127 -13.8471 -0.4530 8.2429 -0.7332 -0.6765 7.4069 7.0325 -0.6666 3.5366 -15.5014 -7.2160 -0.7429 21.2981 -8.2923 -9.4623 9.1517 -4.0648 -0.8900 -0.0000 -0.0000 0.0000 -70.8455 5.3791 21.6833 119.6382 -56.4056 -85.3577 -0.0000 0.0000 -45.5680 -10.3624 33.5797 -5.7751 -7.1250 0.0000 -0.0000 -46.5960 57.2049 -16.2868 -0.0000 -0.0000 0.0000 69.3434 12.0523 8.8677 -21.4609 32.3624 -6.2948 0.0000 0.0000 1.7782 -21.1562 21.1066 -7.9336 7.1250 -0.0000 -0.0000 4.7402 -7.5589 4.0898
6.5344 15.4916 -8.7247 -187.2080 37.4985 -180.8730 0.0000 0.0000 0.0000 -21.8949 11.5317 19.5391 11.8918 18.3445 65.6455 -0.1813 12.0608 5.6557 1.1323 -6.7584 -19.0015 0.0000 0.0000 0.0000 15.2532 1.4168 -43.5434 -3.5577 -11.5474 34.1491 -0.2016 3.6969 10.6704 -0.8843 -5.9945 16.7684 -13.0296 -0.4612 8.1378 -0.8486 -0.6330 7.3931 6.4491 -0.6057 3.5248 -15.3670 -7.1764 0.2820 21.1842 -8.2761 -10.1503 9.1576 -4.1188 -1.2761 0.0000 -0.0000 0.0000 -70.2946 7.0124 21.0543 123.5207 -55.2964 -88.5713 -0.0000 0.0000 -47.0096 -12.1557 33.9910 -6.8666 -7.1250 0.0000 -0.0000 -48.6075 57.1099 -17.1211 0.0000 -0.0000 0.0000 69.3022 12.5497 8.1441 -21.5684 32.4858 -6.3525 0.0000 0.0000 1.6501 -21.2163 21.0765 -7.9473 7.1250 -0.0000 -0.0000 4.6994 -7.5812 4.0524
6.9812 15.4346 -9.1100 -186.7180 36.8092 -181.0550 0.0000 0.0000 0.0000 -20.1536 11.5271 17.5760 13.6891 19.0170 71.2526 -0.2631 12.5692 4.7176 0.8042 -5.7232 -15.9834 0.0000 0.0000 0.0000 16.1515 0.8400 -42.0102 -4.1007 -12.2932 36.7771 0.0647 4.6979 3.1248 -0.0011 -0.2159 0.5931 -12.1687 -0.4910 8.0689 -0.8081 -0.6474 7.2974 6.0122 -0.5740 3.4182 -16.0600 -7.2209 1.3230 21.2456 -8.4476 -10.7007 9.3573 -4.2485 -1.5420 0.0000 -0.0000 0.0000 -70.3080 8.3241 20.4877 126.8903 -54.1752 -91.3230 -0.0000 0.0000 -48.2275 -14.0309 34.6752 -8.0918 -7.1250 0.0000 -0.0000 -50.9724 57.1769 -18.3712 0.0000 -0.0000 0.0000 68.8335 13.0232 7.4878 -21.6931 32.6285 -6.4196 0.0000 0.0000 1.3819 -21.2521 21.0298 -7.9452 7.1250 -0.0000 -0.0000 4.6728 -7.6246 4.0252
7.4196 15.3430 -9.4700 -185.9600 36.0198 -181.0920 0.0000 0.0000 0.0000 -17.8896 11.3558 15.3632 15.6102 19.5316 77.0680 -0.2794 12.2779 4.0397 0.5509 -4.7547 -13.2101 0.0000 0.0000 0.0000 17.3687 0.4842 -40.4589 -4.7529 -13.1000 39.7439 0.0274 4.8683 -2.3642 -0.1599 2.5763 -7.1013 -11.3468 -0.4364 8.1566 -0.5182 -0.5800 7.2092 5.8600 -0.5090 3.2267 -15.5795 -7.1304 1.8487 20.1819 -8.4079 -11.0808 8.9603 -4.2450 -1.8405 0.0000 -0.0000 0.0000 -70.4382 9.6406 20.1863 130.2829 -52.8808 -94.0516 -0.0000 0.0000 -49.8086 -15.8366 34.9049 -9.2196 -7.1250 0.0000 -0.0000 -52.7691 56.9364 -18.9677 0.0000 -0.0000 0.0000 68.2827 13.3936 6.6978 -21.8445 32.8009 -6.5014 0.0000 0.0000 1.2025 -21.2847 20.9894 -7.9440 7.1250 -0.0000 -0.0000 4.6487 -7.6618 4.0009
7.8648 15.3189 -9.8250 -185.0220 35.2019 -180.9670 0.0000 0.0000 0.0000 -15.5910 10.8832 12.7574 17.5076 19.8504 82.6951 -0.2545 11.9342 4.1218 0.4550 -4.3271 -11.9988 0.0000 0.0000 0.0000 18.0580 1.2085 -39.0407 -5.4248 -13.8468 42.6273 -0.1129 2.8548 -5.9988 -0.0165 -0.8301 2.2816 -10.3165 -0.2944 8.4057 -0.2298 -0.3961 7.1165 5.5817 -0.3700 2.9165 -15.9991 -7.1836 2.3923 19.7690 -8.5817 -11.4760 8.9298 -4.3325 -2.0221 0.0000 -0.0000 0.0000 -70.6529 10.5064 19.9427 133.2162 -51.6130 -96.3712 -0.0000 0.0000 -51.4234 -18.0636 34.8150 -10.5481 -7.1250 0.0000 -0.0000 -54.5424 56.3914 -19.1264 0.0000 -0.0000 0.0000 67.9509 13.7401 6.0468 -21.9602 32.9320 -6.5642 0.0000 0.0000 1.0628 -21.3115 20.9461 -7.9394 7.1250 -0.0000 -0.0000 4.6280 -7.7030 3.9792
8.2861 15.2722 -10.1537 -183.6320 34.4992 -180.4830 0.0000 0.0000 0.0000 -13.0700 10.2315 9.6836 19.4600 19.9930 88.4209 -0.1860 10.7059 4.1121 0.4697 -4.3956 -12.1923 0.0000 0.0000 0.0000 19.3711 2.0045 -37.4159 -5.9923 -14.4209 44.9508 -0.2455 1.5447 -8.9468 -0.0010 -0.2022 0.5556 -8.8796 -0.1189 8.6733 0.1542 -0.1306 7.0750 5.1658 -0.1807 2.6353 -16.4099 -7.4154 3.4511 19.7176 -8.9764 -12.4838 9.0623 -4.5571 -2.4021 0.0000 -0.0000 0.0000 -71.3130 10.8425 19.5447 135.5369 -50.5027 -98.1763 -0.0000 0.0000 -52.6831 -20.8127 34.8663 -12.2597 -7.1250 0.0000 -0.0000 -56.8586 55.8338 -19.5263 0.0000 -0.0000 0.0000 67.7653 14.3370 5.9629 -22.0017 32.9789 -6.5868 0.0000 0.0000 0.9528 -21.3333 20.8938 -7.9295 7.1250 -0.0000 -0.0000 4.6098 -7.7545 3.9588
8.6948 15.2279 -10.4708 -180.9840 34.1895 -179.3040 0.0000 0.0000 0.0000 -9.1837 9.8669 6.5513 21.3178 19.9583 93.8557 -0.0772 8.7525 4.5227 0.5817 -4.8836 -13.5768 0.0000 0.0000 0.0000 22.0164 3.1153 -35.2265 -6.4119 -14.8159 46.6131 -0.3711 0.3200 -11.4002 -0.0858 1.8890 -5.1990 -6.5492 0.1247 8.8681 0.8621 0.3088 7.1479 4.5676 0.1150 2.4925 -16.2855 -7.6049 4.1343 19.2959 -9.2477 -13.4915 8.9737 -4.6969 -2.7937 0.0000 -0.0000 0.0000 -72.4262 10.9760 19.0030 137.4926 -49.4873 -99.6745 -0.0000 0.0000 -54.1024 -22.7277 34.8091 -13.4477 -7.1250 0.0000 -0.0000 -58.3347 55.3908 -19.6322 0.0000 -0.0000 0.0000 67.7596 15.1530 6.1758 -22.0479 33.0311 -6.6119 0.0000 0.0000 1.1280 -21.3589 20.8284 -7.9163 7.1250 -0.0000 -0.0000 4.5880 -7.8191 3.9341
